<?xml version="1.0" standalone="no"?><!DOCTYPE svg PUBLIC "-//W3C//DTD SVG 1.1//EN" "http://www.w3.org/Graphics/SVG/1.1/DTD/svg11.dtd"><svg t="1713449705362" class="icon" viewBox="0 0 1024 1024" version="1.1" xmlns="http://www.w3.org/2000/svg" p-id="8258" xmlns:xlink="http://www.w3.org/1999/xlink" width="200" height="200"><path d="M960 705.536l-91.648-91.648c-38.4-38.4-105.472-38.4-143.872 0-1.536 1.536-2.56 3.072-4.096 4.608-16.896 24.064-50.176 59.392-69.12 61.952-27.648 4.096-119.296-28.672-205.312-107.52-89.6-82.432-114.688-143.872-115.2-167.424-0.512-18.432 24.064-52.224 40.96-69.12 39.936-39.936 39.936-104.448 0-143.872L280.064 100.864c-39.424-39.424-104.448-39.936-143.872 0-16.384 16.384-70.656 71.168-83.456 99.84C12.288 291.84-10.752 484.864 287.232 750.592c187.904 167.424 336.896 211.456 440.832 211.456 81.92 0 136.704-27.136 161.792-43.008 32.256-20.48 64.512-60.928 71.68-70.656 38.4-40.448 37.888-103.424-1.536-142.848z m-48.128 95.744c-1.024 1.024-2.048 2.048-3.072 3.584-7.68 10.24-34.816 43.008-55.808 56.32-46.08 29.696-220.672 105.472-520.704-161.792-197.12-175.616-274.432-343.04-217.088-472.064 4.608-10.24 36.864-46.592 68.608-78.336 6.656-6.656 15.36-9.728 23.552-9.728s17.408 3.072 23.552 9.728l92.16 91.648c6.144 6.144 9.728 14.848 9.728 23.552 0 9.216-3.584 17.408-9.728 23.552-10.24 10.24-62.464 65.024-60.928 119.296 1.536 58.368 51.712 137.728 137.728 216.576 86.016 78.848 200.704 133.632 261.12 124.416 52.736-7.68 99.84-68.608 113.152-87.552 13.312-11.264 33.28-10.752 45.568 1.536l91.648 91.648c13.824 13.312 13.824 34.816 0.512 47.616z" p-id="8259"></path></svg>